<?xml version="1.0" standalone="no"?>
<!DOCTYPE svg PUBLIC "-//W3C//DTD SVG 20010904//EN"
 "http://www.w3.org/TR/2001/REC-SVG-20010904/DTD/svg10.dtd">
<svg version="1.0" xmlns="http://www.w3.org/2000/svg"
 width="1024.000000pt" height="1024.000000pt" viewBox="0 0 1024.000000 1024.000000"
 preserveAspectRatio="xMidYMid meet">
<metadata>
Created by potrace 1.14, written by Peter Selinger 2001-2017
</metadata>
<g transform="translate(0.000000,1024.000000) scale(0.100000,-0.100000)"
fill="#000000" stroke="none">
<path d="M4925 10234 c-183 -10 -455 -37 -599 -60 -2081 -329 -3740 -1888
-4201 -3947 -197 -882 -151 -1839 129 -2687 520 -1574 1726 -2779 3286 -3285
1026 -333 2134 -335 3145 -5 808 263 1508 696 2090 1291 1335 1366 1799 3345
1210 5159 -475 1464 -1591 2643 -3020 3192 -477 182 -932 286 -1440 328 -138
11 -496 19 -600 14z m565 -1939 c1095 -113 2040 -725 2523 -1634 337 -635 394
-1426 149 -2096 -83 -228 -172 -405 -305 -605 -116 -176 -193 -267 -371 -445
-224 -222 -427 -376 -683 -516 -74 -41 -135 -82 -168 -115 -27 -27 -130 -132
-228 -232 -309 -314 -634 -592 -995 -851 -142 -101 -283 -194 -287 -189 -6 6
-78 354 -181 874 l-16 81 -166 17 c-559 59 -1073 239 -1527 535 -260 170 -582
469 -756 703 -153 207 -272 416 -361 638 -233 576 -254 1224 -58 1810 289 863
1018 1558 1961 1870 254 84 536 141 789 159 85 6 178 13 205 15 85 6 323 -3
475 -19z"/>
<path d="M3789 5759 c-97 -15 -192 -86 -241 -179 -19 -38 -23 -60 -23 -140 0
-80 4 -102 23 -140 30 -57 84 -113 142 -148 41 -25 54 -27 150 -27 96 0 109 2
150 27 58 35 112 91 142 148 17 34 24 66 26 127 4 72 1 89 -23 140 -62 136
-202 214 -346 192z"/>
<path d="M5069 5759 c-47 -7 -129 -45 -164 -76 -132 -116 -143 -327 -24 -457
72 -79 124 -101 239 -101 115 0 167 22 239 101 101 111 111 288 23 404 -39 51
-60 68 -127 100 -67 31 -119 40 -186 29z"/>
<path d="M6337 5759 c-95 -22 -183 -91 -229 -179 -19 -38 -23 -60 -23 -140 0
-80 4 -102 23 -140 30 -57 84 -113 142 -148 41 -25 54 -27 150 -27 96 0 109 2
150 27 58 35 112 91 142 148 17 34 24 66 26 127 4 71 1 89 -23 141 -15 33 -45
78 -68 100 -74 73 -200 112 -290 91z"/>
</g>
</svg>
